<?xml version="1.0" encoding="UTF-8"?><svg xmlns="http://www.w3.org/2000/svg" viewBox="0 0 200 200"><defs><style>.cls-1{fill:#37454f;}.cls-2{fill:#445365;}.cls-3{fill:#718aa5;}.cls-4{fill:#5a6d85;}.cls-5{fill:#5e728b;}</style></defs><g id="profile_icon"><circle id="bg" class="cls-2" cx="87.85" cy="112.15" r="79.07"/><g id="torso"><path class="cls-4" d="M87.85,133.36c-36.75-.79-50.78,13.1-52.82,39.4-.09,.73-.17,1.46-.24,2.18,10.35,14.65,28.26,19.52,53.06,19.65,24.81-.13,42.71-5,53.06-19.65-.07-.72-.15-1.45-.24-2.18-2.04-26.31-16.08-40.19-52.82-39.4Z"/></g><path id="border-outer" class="cls-5" d="M87.85,24.29C39.33,24.29,0,63.63,0,112.15s39.33,87.85,87.85,87.85,87.85-39.33,87.85-87.85S136.37,24.29,87.85,24.29Zm0,166.92c-43.67,0-79.07-35.4-79.07-79.07S44.19,33.08,87.85,33.08s79.07,35.4,79.07,79.07-35.4,79.07-79.07,79.07Z"/><g id="head-outline"><ellipse class="cls-2" cx="87.85" cy="104.24" rx="30.75" ry="33.82"/></g><g id="head"><ellipse class="cls-5" cx="87.85" cy="104.24" rx="26.8" ry="29.47"/></g></g><g id="pencil"><g id="pencil-2"><path class="cls-1" d="M169.66,12.46l17.76,17.76,11.57-11.57s1.97-1.85,.41-3.41L184.63,.47c-1.17-1.17-3.18,.19-3.18,.19l-11.79,11.79Z"/><polygon class="cls-1" points="109.41 72.7 127.18 90.46 184.22 33.42 166.68 15.43 109.41 72.7"/><path class="cls-3" d="M109.41,72.7s4.94-2.84,8.08,.3,.73,8.5,.73,8.5c0,0,6.36-1.42,8.66,.89s.3,8.08,.3,8.08l-27.15,9.39,9.39-27.15Z"/><path class="cls-1" d="M100.03,99.85l6.31-2.18s.36-2.03-.84-3.23-3.25-.86-3.25-.86l-2.22,6.28Z"/></g></g></svg>