<?xml version="1.0" encoding="UTF-8"?><svg id="Layer_2" xmlns="http://www.w3.org/2000/svg" viewBox="0 0 1080 957.66"><defs><style>.cls-1{fill:#fff;}</style></defs><g id="Layer_1-2"><path id="home_icon" class="cls-1" d="M575.9,17.7c1.14,.95,504.1,412.07,504.1,449.9s.13,60-26.4,60h-105.66c-27.69,0-27.94,0-27.94,27.43v382.49c0,21.71-15.1,20.11-37.07,20.11-27.17,0-176.69-.03-198.52-.03s-34.41,.05-34.41-20.08c0-15.66,0-148.73,0-211.28,0-17.86,5.29-38.65-21.81-38.65h-179.15c-20.65,0-19.04,21.02-19.04,38.65,0,59.01,0,180.25,0,204.09,0,29.42-5.37,27.26-36.14,27.26H194.3c-31.57,0-34.3-4.8-34.3-32.36v-370.2c0-26.79-.28-27.43-27.31-27.43-33.08-.09-82.09,0-107.39,0S0,496.58,0,467.6,503.06,18.63,504.1,17.7c26.23-23.47,43.4-23.73,71.8,0Z"/></g></svg>