<?xml version="1.0" encoding="UTF-8"?><svg id="Layer_2" xmlns="http://www.w3.org/2000/svg" viewBox="0 0 200 142.47"><g id="eye"><path id="outline" d="M100,21.24C44.77,21.24,0,71.24,0,71.24c0,0,44.77,50,100,50s100-50,100-50c0,0-44.77-50-100-50Zm0,95c-52.47,0-95-45-95-45,0,0,42.53-45,95-45s95,45,95,45c0,0-42.53,45-95,45Z"/><path id="iris" d="M100,21.24c-27.61,0-50,22.39-50,50s22.39,50,50,50,50-22.39,50-50-22.39-50-50-50Zm0,95c-24.85,0-45-20.15-45-45s20.15-45,45-45,45,20.15,45,45-20.15,45-45,45Z"/><circle id="pupil" cx="100" cy="71.24" r="15"/></g><g id="hide"><rect x="92.5" y="-6.72" width="14.99" height="155.92" transform="translate(48.98 -40.44) rotate(29.98)"/></g></svg>