<?xml version="1.0" encoding="UTF-8"?><svg id="Layer_2" xmlns="http://www.w3.org/2000/svg" viewBox="0 0 1080 1080"><defs><style>.cls-1{fill:#fff;}.cls-2{fill:none;}</style></defs><g id="nav_icons"><g id="add_icon"><path class="cls-2" d="M918.58,0H161.42C72.64,0,0,72.64,0,161.42V918.58c0,88.78,72.64,161.42,161.42,161.42H918.58c88.78,0,161.42-72.64,161.42-161.42V161.42C1080,72.64,1007.36,0,918.58,0Zm102.79,847.84c0,95.45-78.09,173.54-173.54,173.54H232.16c-95.45,0-173.54-78.09-173.54-173.54V232.16c0-95.45,78.09-173.54,173.54-173.54H847.84c95.45,0,173.54,78.09,173.54,173.54V847.84Z"/><path class="cls-1" d="M915.52,476.91h-311.9V164.48c0-27.51-6.34-50.01-33.85-50.01h-59.55c-27.51,0-33.6,22.51-33.6,50.01V476.91H164.48c-27.51,0-50.01,5.8-50.01,33.31v59.55c0,27.51,22.51,27.04,50.01,27.04H476.63v318.71c0,27.51,6.09,50.01,33.6,50.01h59.55c27.51,0,33.85-22.51,33.85-50.01v-318.71h311.9c27.51,0,50.01,.46,50.01-27.04v-59.55c0-27.51-22.51-33.31-50.01-33.31Z"/></g></g></svg>