<?xml version="1.0" encoding="UTF-8"?><svg id="Layer_2" xmlns="http://www.w3.org/2000/svg" viewBox="0 0 200 149"><defs><style>.cls-1{fill:#fff;}</style></defs><g id="camera"><g><circle class="cls-1" cx="100" cy="82" r="45"/><path class="cls-1" d="M166.9,17h-21.29c-1.88-9.65-10.42-17-20.6-17h-50c-10.18,0-18.72,7.35-20.6,17h-21.29C14.9,17,0,31.9,0,50.1V115.9c0,18.21,14.9,33.1,33.1,33.1H166.9c18.21,0,33.1-14.9,33.1-33.1V50.1c0-18.21-14.9-33.1-33.1-33.1Zm-66.9,114c-27.06,0-49-21.94-49-49s21.94-49,49-49,49,21.94,49,49-21.94,49-49,49ZM170,58c-6.08,0-11-4.92-11-11s4.92-11,11-11,11,4.92,11,11-4.92,11-11,11Z"/></g></g></svg>