<?xml version="1.0" encoding="utf-8"?>
<!-- Generator: Adobe Illustrator 26.3.1, SVG Export Plug-In . SVG Version: 6.00 Build 0)  -->
<svg version="1.1" xmlns="http://www.w3.org/2000/svg" xmlns:xlink="http://www.w3.org/1999/xlink" x="0px" y="0px"
	 viewBox="0 0 1080 1080" style="enable-background:new 0 0 1080 1080;" xml:space="preserve">
<style type="text/css">
	.st0{display:none;}
	.st1{fill:#FFFFFF;}
	.st2{display:inline;}
	.st3{display:inline;fill:#FFFFFF;}
	.st4{display:inline;opacity:0.5;fill:#828282;}
	.st5{fill:none;}
	.st6{display:none;fill:#FFFFFF;}
</style>
<g id="nav_x5F_icons" class="st0">
	<path id="home_x5F_icon" class="st1" d="M575.9,90.1C577,91.1,1080,502.2,1080,540s0.1,60-26.4,60c-18.7,0-72.7,0-105.7,0
		c-27.7,0-27.9,0-27.9,27.4c0,25.7,0,352.3,0,382.5c0,21.7-15.1,20.1-37.1,20.1c-27.2,0-176.7,0-198.5,0s-34.4,0-34.4-20.1
		c0-15.7,0-148.7,0-211.3c0-17.9,5.3-38.6-21.8-38.6s-158.5,0-179.1,0s-19,21-19,38.6c0,59,0,180.3,0,204.1
		c0,29.4-5.4,27.3-36.1,27.3s-163.3,0-199.6,0c-31.6,0-34.3-4.8-34.3-32.4s0-343.4,0-370.2c0-26.8-0.3-27.4-27.3-27.4
		c-33.1-0.1-82.1,0-107.4,0S0,569,0,540S503.1,91,504.1,90.1C530.3,66.6,547.5,66.4,575.9,90.1z"/>
	<g id="profile_x5F_icon" class="st2">
		<path id="border" class="st1" d="M540,0C241.8,0,0,241.8,0,540s241.8,540,540,540s540-241.8,540-540S838.2,0,540,0z M540,1018.7
			c-264.4,0-478.7-214.3-478.7-478.7S275.6,61.3,540,61.3s478.7,214.3,478.7,478.7S804.4,1018.7,540,1018.7z"/>
		<path id="torso" class="st1" d="M678.1,560.3c50.5-46.1,82.9-117,82.9-196.5c0-139-98.9-251.7-220.9-251.7
			S319.1,224.8,319.1,363.8c0,79.5,32.4,150.4,82.9,196.5C275,600.3,177.4,694,144.7,810c86.2,126,231.1,208.7,395.3,208.7
			S849.1,936,935.3,810C902.6,694,805,600.3,678.1,560.3z"/>
	</g>
	<g id="search_x5F_icon">
		<path id="handle" class="st3" d="M1072.9,1036.5l-36.4,36.4c-9.4,9.4-24.9,9.4-34.3,0L628,698.7c-9.4-9.4-9.4-24.9,0-34.3
			l36.4-36.4c9.4-9.4,24.9-9.4,34.3,0l374.3,374.3C1082.4,1011.7,1082.4,1027.1,1072.9,1036.5z"/>
		<path id="frame" class="st3" d="M394.5,0C176.6,0,0,176.6,0,394.5S176.6,789,394.5,789S789,612.4,789,394.5S612.4,0,394.5,0z
			 M394.5,716.9c-178,0-322.4-144.3-322.4-322.4S216.5,72.1,394.5,72.1s322.4,144.3,322.4,322.4S572.5,716.9,394.5,716.9z"/>
		<circle id="lens" class="st4" cx="394.5" cy="394.5" r="322.4"/>
	</g>
	<g id="add_x5F_icon" class="st2">
		<path class="st5" d="M918.6,0H161.4C72.6,0,0,72.6,0,161.4v757.2c0,88.8,72.6,161.4,161.4,161.4h757.2
			c88.8,0,161.4-72.6,161.4-161.4V161.4C1080,72.6,1007.4,0,918.6,0z M1021.4,847.8c0,95.4-78.1,173.5-173.5,173.5H232.2
			c-95.4,0-173.5-78.1-173.5-173.5V232.2c0-95.4,78.1-173.5,173.5-173.5h615.7c95.4,0,173.5,78.1,173.5,173.5V847.8z"/>
		<path class="st1" d="M915.5,476.9H603.6V164.5c0-27.5-6.3-50-33.8-50h-59.6c-27.5,0-33.6,22.5-33.6,50v312.4H164.5
			c-27.5,0-50,5.8-50,33.3v59.6c0,27.5,22.5,27,50,27h312.2v318.7c0,27.5,6.1,50,33.6,50h59.6c27.5,0,33.8-22.5,33.8-50V596.8h311.9
			c27.5,0,50,0.5,50-27v-59.6C965.5,482.7,943,476.9,915.5,476.9z"/>
	</g>
</g>
<g id="ratings_x5F_icon">
	<polygon id="star" class="st1" points="540,0 706.9,355.5 1080,412.5 810,689.3 873.7,1080 540,895.5 206.3,1080 270,689.3 
		0,412.5 373.1,355.5 	"/>
	<path class="st6" d="M1080,412.5l-373.1-57L540,0L373.1,355.5L0,412.5l270,276.7L206.3,1080L540,895.5L873.7,1080L810,689.3
		L1080,412.5z M540,824.7l-255.1,141l48.7-298.6L127.3,455.6L412.5,412L540,140.3L667.5,412l285.2,43.6L746.3,667.1l48.7,298.6
		L540,824.7z"/>
</g>
</svg>
