<?xml version="1.0" encoding="UTF-8"?><svg id="Layer_2" xmlns="http://www.w3.org/2000/svg" viewBox="0 0 200 100"><g id="eye"><path id="outline" d="M100,0C44.77,0,0,50,0,50c0,0,44.77,50,100,50s100-50,100-50c0,0-44.77-50-100-50Zm0,95C47.53,95,5,50,5,50c0,0,42.53-45,95-45s95,45,95,45c0,0-42.53,45-95,45Z"/><path id="iris" d="M100,0c-27.61,0-50,22.39-50,50s22.39,50,50,50,50-22.39,50-50S127.61,0,100,0Zm0,95c-24.85,0-45-20.15-45-45S75.15,5,100,5s45,20.15,45,45-20.15,45-45,45Z"/><circle id="pupil" cx="100" cy="50" r="15"/></g></svg>