<?xml version="1.0" encoding="UTF-8"?><svg id="Layer_2" xmlns="http://www.w3.org/2000/svg" viewBox="0 0 200 200"><defs><style>.cls-1{fill:#445365;}.cls-2{fill:#5a6d85;}.cls-3{fill:#5e728b;}</style></defs><g id="profile_icon"><circle id="bg" class="cls-1" cx="100" cy="100" r="90"/><g id="torso"><path class="cls-2" d="M100,124.15c-19.87,.18-35.7,3.07-45.05,10.76-9.68,7.48-12.87,19.75-15.08,34.09-.1,.83-.19,1.66-.28,2.48,11.78,16.68,32.16,22.22,60.4,22.37,28.24-.15,48.61-5.69,60.4-22.37-.08-.82-.17-1.65-.28-2.48-2.2-14.34-5.4-26.61-15.08-34.09-9.35-7.68-25.18-10.58-45.05-10.76Z"/></g><path id="border-outer" class="cls-3" d="M100,0C44.77,0,0,44.77,0,100s44.77,100,100,100,100-44.77,100-100S155.23,0,100,0Zm0,190c-49.71,0-90-40.29-90-90S50.29,10,100,10s90,40.29,90,90-40.29,90-90,90Z"/><g id="head-outline"><ellipse class="cls-1" cx="100" cy="91" rx="35" ry="38.5"/></g><g id="head"><ellipse class="cls-3" cx="100" cy="91" rx="30.5" ry="33.55"/></g></g></svg>