<?xml version="1.0" encoding="UTF-8"?><svg id="Layer_2" xmlns="http://www.w3.org/2000/svg" viewBox="0 0 1080 1080"><defs><style>.cls-1{fill:#fff;}</style></defs><g id="Layer_1-2"><g id="profile_icon"><path id="border" class="cls-1" d="M540,0C241.77,0,0,241.77,0,540s241.77,540,540,540,540-241.77,540-540S838.23,0,540,0Zm0,1018.68c-264.37,0-478.68-214.31-478.68-478.68S275.63,61.32,540,61.32s478.68,214.31,478.68,478.68-214.31,478.68-478.68,478.68Z"/><path id="torso" class="cls-1" d="M678.06,560.32c50.52-46.13,82.88-117.01,82.88-196.51,0-139.02-98.92-251.72-220.94-251.72s-220.94,112.7-220.94,251.72c0,79.5,32.36,150.38,82.88,196.51-126.91,40.02-224.57,133.63-257.28,249.64,86.22,126.02,231.12,208.72,395.33,208.72s309.11-82.7,395.33-208.72c-32.71-116.01-130.37-209.62-257.28-249.64Z"/></g></g></svg>